<?xml version="1.0" encoding="UTF-8" standalone="no"?><svg xmlns="http://www.w3.org/2000/svg" xmlns:xlink="http://www.w3.org/1999/xlink" contentScriptType="application/ecmascript" contentStyleType="text/css" height="461px" preserveAspectRatio="none" style="width:1036px;height:461px;" version="1.1" viewBox="0 0 1036 461" width="1036px" zoomAndPan="magnify"><defs><filter height="300%" id="fma7srtbmxbiz" width="300%" x="-1" y="-1"><feGaussianBlur result="blurOut" stdDeviation="2.0"/><feColorMatrix in="blurOut" result="blurOut2" type="matrix" values="0 0 0 0 0 0 0 0 0 0 0 0 0 0 0 0 0 0 .4 0"/><feOffset dx="4.0" dy="4.0" in="blurOut2" result="blurOut3"/><feBlend in="SourceGraphic" in2="blurOut3" mode="normal"/></filter></defs><g><text fill="#000000" font-family="sans-serif" font-size="18" lengthAdjust="spacingAndGlyphs" textLength="263" x="380.25" y="17.4023">Generated UML Class Diagram</text><!--MD5=[ed0c63156f1c728f406b106d88d9af45]
class Canard--><rect codeLine="7" fill="#F0F8FF" filter="url(#fma7srtbmxbiz)" height="91.8203" id="Canard" rx="5" ry="5" style="stroke: #2F4F4F; stroke-width: 1.5;" width="134" x="512.5" y="34.6992"/><ellipse cx="556.3" cy="50.6992" fill="#A9DCDF" rx="11" ry="11" style="stroke: #2F4F4F; stroke-width: 1.0;"/><path d="M556.1633,46.0474 L555.0095,51.1191 L557.3254,51.1191 Z M554.6691,43.8062 L557.6657,43.8062 L561.0109,56.1992 L558.5622,56.1992 L557.7985,53.1362 L554.5197,53.1362 L553.7727,56.1992 L551.3239,56.1992 Z "/><text fill="#000000" font-family="TrebuchetMS" font-size="12" font-style="italic" lengthAdjust="spacingAndGlyphs" textLength="38" x="576.7" y="55">Canard</text><line style="stroke: #2F4F4F; stroke-width: 1.5;" x1="513.5" x2="645.5" y1="66.6992" y2="66.6992"/><text fill="#000000" font-family="sans-serif" font-size="11" lengthAdjust="spacingAndGlyphs" textLength="122" x="518.5" y="81.334">void effectuerCancan()</text><text fill="#000000" font-family="sans-serif" font-size="11" lengthAdjust="spacingAndGlyphs" textLength="65" x="518.5" y="94.2891">void nager()</text><text fill="#000000" font-family="sans-serif" font-size="11" lengthAdjust="spacingAndGlyphs" textLength="75" x="518.5" y="107.2441">void afficher()</text><text fill="#000000" font-family="sans-serif" font-size="11" lengthAdjust="spacingAndGlyphs" textLength="99" x="518.5" y="120.1992">void effectuerVol()</text><!--MD5=[640624e924bb6500302b5140e4a7de10]
class CanardEnPlastique--><rect codeLine="9" fill="#F0F8FF" filter="url(#fma7srtbmxbiz)" height="91.8203" id="CanardEnPlastique" rx="5" ry="5" style="stroke: #2F4F4F; stroke-width: 1.5;" width="134" x="289.5" y="193.1992"/><ellipse cx="304.5" cy="209.1992" fill="#ADD1B2" rx="11" ry="11" style="stroke: #2F4F4F; stroke-width: 1.0;"/><path d="M306.9731,215.3423 Q306.3921,215.6411 305.7529,215.7905 Q305.1138,215.9399 304.4082,215.9399 Q301.9014,215.9399 300.5815,214.2881 Q299.2617,212.6362 299.2617,209.5151 Q299.2617,206.3857 300.5815,204.7339 Q301.9014,203.082 304.4082,203.082 Q305.1138,203.082 305.7612,203.2314 Q306.4087,203.3809 306.9731,203.6797 L306.9731,206.4023 Q306.3423,205.8213 305.7488,205.5515 Q305.1553,205.2817 304.5244,205.2817 Q303.1797,205.2817 302.4949,206.3484 Q301.8101,207.415 301.8101,209.5151 Q301.8101,211.6069 302.4949,212.6736 Q303.1797,213.7402 304.5244,213.7402 Q305.1553,213.7402 305.7488,213.4705 Q306.3423,213.2007 306.9731,212.6196 Z "/><text fill="#000000" font-family="TrebuchetMS" font-size="12" lengthAdjust="spacingAndGlyphs" textLength="102" x="318.5" y="213.5">CanardEnPlastique</text><line style="stroke: #2F4F4F; stroke-width: 1.5;" x1="290.5" x2="422.5" y1="225.1992" y2="225.1992"/><text fill="#000000" font-family="sans-serif" font-size="11" lengthAdjust="spacingAndGlyphs" textLength="83" x="295.5" y="239.834">void cancaner()</text><text fill="#000000" font-family="sans-serif" font-size="11" lengthAdjust="spacingAndGlyphs" textLength="65" x="295.5" y="252.7891">void nager()</text><text fill="#000000" font-family="sans-serif" font-size="11" lengthAdjust="spacingAndGlyphs" textLength="61" x="295.5" y="265.7441">void voler()</text><text fill="#000000" font-family="sans-serif" font-size="11" lengthAdjust="spacingAndGlyphs" textLength="75" x="295.5" y="278.6992">void afficher()</text><!--MD5=[23ec1d3b97f5d62400be78cce871772b]
class Cancan--><rect codeLine="10" fill="#F0F8FF" filter="url(#fma7srtbmxbiz)" height="52.9551" id="Cancan" rx="5" ry="5" style="stroke: #2F4F4F; stroke-width: 1.5;" width="95" x="609" y="345.1992"/><ellipse cx="634.8" cy="361.1992" fill="#ADD1B2" rx="11" ry="11" style="stroke: #2F4F4F; stroke-width: 1.0;"/><path d="M637.2731,367.3423 Q636.6921,367.6411 636.0529,367.7905 Q635.4138,367.9399 634.7082,367.9399 Q632.2014,367.9399 630.8815,366.2881 Q629.5617,364.6362 629.5617,361.5151 Q629.5617,358.3857 630.8815,356.7339 Q632.2014,355.082 634.7082,355.082 Q635.4138,355.082 636.0612,355.2314 Q636.7087,355.3809 637.2731,355.6797 L637.2731,358.4023 Q636.6423,357.8213 636.0488,357.5515 Q635.4553,357.2817 634.8244,357.2817 Q633.4797,357.2817 632.7949,358.3484 Q632.1101,359.415 632.1101,361.5151 Q632.1101,363.6069 632.7949,364.6736 Q633.4797,365.7402 634.8244,365.7402 Q635.4553,365.7402 636.0488,365.4705 Q636.6423,365.2007 637.2731,364.6196 Z "/><text fill="#000000" font-family="TrebuchetMS" font-size="12" lengthAdjust="spacingAndGlyphs" textLength="39" x="651.2" y="365.5">Cancan</text><line style="stroke: #2F4F4F; stroke-width: 1.5;" x1="610" x2="703" y1="377.1992" y2="377.1992"/><text fill="#000000" font-family="sans-serif" font-size="11" lengthAdjust="spacingAndGlyphs" textLength="83" x="615" y="391.834">void cancaner()</text><!--MD5=[6aadc5b7719e054ab02810ef317c56ff]
class Colvert--><rect codeLine="11" fill="#F0F8FF" filter="url(#fma7srtbmxbiz)" height="52.9551" id="Colvert" rx="5" ry="5" style="stroke: #2F4F4F; stroke-width: 1.5;" width="87" x="459" y="212.6992"/><ellipse cx="480.75" cy="228.6992" fill="#ADD1B2" rx="11" ry="11" style="stroke: #2F4F4F; stroke-width: 1.0;"/><path d="M483.2231,234.8423 Q482.6421,235.1411 482.0029,235.2905 Q481.3638,235.4399 480.6582,235.4399 Q478.1514,235.4399 476.8315,233.7881 Q475.5117,232.1362 475.5117,229.0151 Q475.5117,225.8857 476.8315,224.2339 Q478.1514,222.582 480.6582,222.582 Q481.3638,222.582 482.0112,222.7314 Q482.6587,222.8809 483.2231,223.1797 L483.2231,225.9023 Q482.5923,225.3213 481.9988,225.0515 Q481.4053,224.7817 480.7744,224.7817 Q479.4297,224.7817 478.7449,225.8484 Q478.0601,226.915 478.0601,229.0151 Q478.0601,231.1069 478.7449,232.1736 Q479.4297,233.2402 480.7744,233.2402 Q481.4053,233.2402 481.9988,232.9705 Q482.5923,232.7007 483.2231,232.1196 Z "/><text fill="#000000" font-family="TrebuchetMS" font-size="12" lengthAdjust="spacingAndGlyphs" textLength="40" x="496.25" y="233">Colvert</text><line style="stroke: #2F4F4F; stroke-width: 1.5;" x1="460" x2="545" y1="244.6992" y2="244.6992"/><text fill="#000000" font-family="sans-serif" font-size="11" lengthAdjust="spacingAndGlyphs" textLength="75" x="465" y="259.334">void afficher()</text><!--MD5=[aca95363a2580d34b7fffd91ec4191e8]
class ComportementCancan--><rect codeLine="12" fill="#F0F8FF" filter="url(#fma7srtbmxbiz)" height="52.9551" id="ComportementCancan" rx="5" ry="5" style="stroke: #2F4F4F; stroke-width: 1.5;" width="151" x="581" y="212.6992"/><ellipse cx="596" cy="228.6992" fill="#B4A7E5" rx="11" ry="11" style="stroke: #2F4F4F; stroke-width: 1.0;"/><path d="M592.4277,224.9644 L592.4277,222.8062 L599.8071,222.8062 L599.8071,224.9644 L597.3418,224.9644 L597.3418,233.041 L599.8071,233.041 L599.8071,235.1992 L592.4277,235.1992 L592.4277,233.041 L594.8931,233.041 L594.8931,224.9644 Z "/><text fill="#000000" font-family="TrebuchetMS" font-size="12" font-style="italic" lengthAdjust="spacingAndGlyphs" textLength="119" x="610" y="233">ComportementCancan</text><line style="stroke: #2F4F4F; stroke-width: 1.5;" x1="582" x2="731" y1="244.6992" y2="244.6992"/><text fill="#000000" font-family="sans-serif" font-size="11" lengthAdjust="spacingAndGlyphs" textLength="83" x="587" y="259.334">void cancaner()</text><!--MD5=[4a051ddfd7b415cd11c793f41deb1f2f]
class ComportementVol--><rect codeLine="13" fill="#F0F8FF" filter="url(#fma7srtbmxbiz)" height="52.9551" id="ComportementVol" rx="5" ry="5" style="stroke: #2F4F4F; stroke-width: 1.5;" width="129" x="767" y="212.6992"/><ellipse cx="782" cy="228.6992" fill="#B4A7E5" rx="11" ry="11" style="stroke: #2F4F4F; stroke-width: 1.0;"/><path d="M778.4277,224.9644 L778.4277,222.8062 L785.8071,222.8062 L785.8071,224.9644 L783.3418,224.9644 L783.3418,233.041 L785.8071,233.041 L785.8071,235.1992 L778.4277,235.1992 L778.4277,233.041 L780.8931,233.041 L780.8931,224.9644 Z "/><text fill="#000000" font-family="TrebuchetMS" font-size="12" font-style="italic" lengthAdjust="spacingAndGlyphs" textLength="97" x="796" y="233">ComportementVol</text><line style="stroke: #2F4F4F; stroke-width: 1.5;" x1="768" x2="895" y1="244.6992" y2="244.6992"/><text fill="#000000" font-family="sans-serif" font-size="11" lengthAdjust="spacingAndGlyphs" textLength="61" x="773" y="259.334">void voler()</text><!--MD5=[f5a6a62b3b1e0fe4d3183fb2d6526152]
class NePasVoler--><rect codeLine="14" fill="#F0F8FF" filter="url(#fma7srtbmxbiz)" height="52.9551" id="NePasVoler" rx="5" ry="5" style="stroke: #2F4F4F; stroke-width: 1.5;" width="94" x="761.5" y="345.1992"/><ellipse cx="776.5" cy="361.1992" fill="#ADD1B2" rx="11" ry="11" style="stroke: #2F4F4F; stroke-width: 1.0;"/><path d="M778.9731,367.3423 Q778.3921,367.6411 777.7529,367.7905 Q777.1138,367.9399 776.4082,367.9399 Q773.9014,367.9399 772.5815,366.2881 Q771.2617,364.6362 771.2617,361.5151 Q771.2617,358.3857 772.5815,356.7339 Q773.9014,355.082 776.4082,355.082 Q777.1138,355.082 777.7612,355.2314 Q778.4087,355.3809 778.9731,355.6797 L778.9731,358.4023 Q778.3423,357.8213 777.7488,357.5515 Q777.1553,357.2817 776.5244,357.2817 Q775.1797,357.2817 774.4949,358.3484 Q773.8101,359.415 773.8101,361.5151 Q773.8101,363.6069 774.4949,364.6736 Q775.1797,365.7402 776.5244,365.7402 Q777.1553,365.7402 777.7488,365.4705 Q778.3423,365.2007 778.9731,364.6196 Z "/><text fill="#000000" font-family="TrebuchetMS" font-size="12" lengthAdjust="spacingAndGlyphs" textLength="62" x="790.5" y="365.5">NePasVoler</text><line style="stroke: #2F4F4F; stroke-width: 1.5;" x1="762.5" x2="854.5" y1="377.1992" y2="377.1992"/><text fill="#000000" font-family="sans-serif" font-size="11" lengthAdjust="spacingAndGlyphs" textLength="61" x="767.5" y="391.834">void voler()</text><!--MD5=[2efcf89217524501dea0389016388298]
class SuperCanard--><rect codeLine="15" fill="#F0F8FF" filter="url(#fma7srtbmxbiz)" height="52.9551" id="SuperCanard" rx="5" ry="5" style="stroke: #2F4F4F; stroke-width: 1.5;" width="104" x="78.5" y="54.1992"/><ellipse cx="94.4" cy="70.1992" fill="#ADD1B2" rx="11" ry="11" style="stroke: #2F4F4F; stroke-width: 1.0;"/><path d="M96.8731,76.3423 Q96.2921,76.6411 95.6529,76.7905 Q95.0138,76.9399 94.3082,76.9399 Q91.8014,76.9399 90.4815,75.2881 Q89.1617,73.6362 89.1617,70.5151 Q89.1617,67.3857 90.4815,65.7339 Q91.8014,64.082 94.3082,64.082 Q95.0138,64.082 95.6612,64.2314 Q96.3087,64.3809 96.8731,64.6797 L96.8731,67.4023 Q96.2423,66.8213 95.6488,66.5515 Q95.0553,66.2817 94.4244,66.2817 Q93.0797,66.2817 92.3949,67.3484 Q91.7101,68.415 91.7101,70.5151 Q91.7101,72.6069 92.3949,73.6736 Q93.0797,74.7402 94.4244,74.7402 Q95.0553,74.7402 95.6488,74.4705 Q96.2423,74.2007 96.8731,73.6196 Z "/><text fill="#000000" font-family="TrebuchetMS" font-size="12" lengthAdjust="spacingAndGlyphs" textLength="70" x="108.6" y="74.5">SuperCanard</text><line style="stroke: #2F4F4F; stroke-width: 1.5;" x1="79.5" x2="181.5" y1="86.1992" y2="86.1992"/><text fill="#000000" font-family="sans-serif" font-size="11" lengthAdjust="spacingAndGlyphs" textLength="92" x="84.5" y="100.834">void main(String)</text><!--MD5=[06e1b0eb3c8a18594f3aafbef03a0f76]
class SuperCanardTest--><rect codeLine="16" fill="#F0F8FF" filter="url(#fma7srtbmxbiz)" height="104.7754" id="SuperCanardTest" rx="5" ry="5" style="stroke: #2F4F4F; stroke-width: 1.5;" width="126" x="217.5" y="28.1992"/><ellipse cx="232.5" cy="44.1992" fill="#ADD1B2" rx="11" ry="11" style="stroke: #2F4F4F; stroke-width: 1.0;"/><path d="M234.9731,50.3423 Q234.3921,50.6411 233.7529,50.7905 Q233.1138,50.9399 232.4082,50.9399 Q229.9014,50.9399 228.5815,49.2881 Q227.2617,47.6362 227.2617,44.5151 Q227.2617,41.3857 228.5815,39.7339 Q229.9014,38.082 232.4082,38.082 Q233.1138,38.082 233.7612,38.2314 Q234.4087,38.3809 234.9731,38.6797 L234.9731,41.4023 Q234.3423,40.8213 233.7488,40.5515 Q233.1553,40.2817 232.5244,40.2817 Q231.1797,40.2817 230.4949,41.3484 Q229.8101,42.415 229.8101,44.5151 Q229.8101,46.6069 230.4949,47.6736 Q231.1797,48.7402 232.5244,48.7402 Q233.1553,48.7402 233.7488,48.4705 Q234.3423,48.2007 234.9731,47.6196 Z "/><text fill="#000000" font-family="TrebuchetMS" font-size="12" lengthAdjust="spacingAndGlyphs" textLength="94" x="246.5" y="48.5">SuperCanardTest</text><line style="stroke: #2F4F4F; stroke-width: 1.5;" x1="218.5" x2="342.5" y1="60.1992" y2="60.1992"/><text fill="#000000" font-family="sans-serif" font-size="11" lengthAdjust="spacingAndGlyphs" textLength="92" x="223.5" y="74.834">void main(String)</text><text fill="#000000" font-family="sans-serif" font-size="11" lengthAdjust="spacingAndGlyphs" textLength="93" x="223.5" y="87.7891">void test_ligne1()</text><text fill="#000000" font-family="sans-serif" font-size="11" lengthAdjust="spacingAndGlyphs" textLength="93" x="223.5" y="100.7441">void test_ligne2()</text><text fill="#000000" font-family="sans-serif" font-size="11" lengthAdjust="spacingAndGlyphs" textLength="93" x="223.5" y="113.6992">void test_ligne3()</text><text fill="#000000" font-family="sans-serif" font-size="11" lengthAdjust="spacingAndGlyphs" textLength="93" x="223.5" y="126.6543">void test_ligne4()</text><!--MD5=[bb15fcdb49ed51482144736babe31d55]
class SuperCanardTest2--><rect codeLine="17" fill="#F0F8FF" filter="url(#fma7srtbmxbiz)" height="91.8203" id="SuperCanardTest2" rx="5" ry="5" style="stroke: #2F4F4F; stroke-width: 1.5;" width="247" x="7" y="193.1992"/><ellipse cx="76.25" cy="209.1992" fill="#ADD1B2" rx="11" ry="11" style="stroke: #2F4F4F; stroke-width: 1.0;"/><path d="M78.7231,215.3423 Q78.1421,215.6411 77.5029,215.7905 Q76.8638,215.9399 76.1582,215.9399 Q73.6514,215.9399 72.3315,214.2881 Q71.0117,212.6362 71.0117,209.5151 Q71.0117,206.3857 72.3315,204.7339 Q73.6514,203.082 76.1582,203.082 Q76.8638,203.082 77.5112,203.2314 Q78.1587,203.3809 78.7231,203.6797 L78.7231,206.4023 Q78.0923,205.8213 77.4988,205.5515 Q76.9053,205.2817 76.2744,205.2817 Q74.9297,205.2817 74.2449,206.3484 Q73.5601,207.415 73.5601,209.5151 Q73.5601,211.6069 74.2449,212.6736 Q74.9297,213.7402 76.2744,213.7402 Q76.9053,213.7402 77.4988,213.4705 Q78.0923,213.2007 78.7231,212.6196 Z "/><text fill="#000000" font-family="TrebuchetMS" font-size="12" lengthAdjust="spacingAndGlyphs" textLength="100" x="96.75" y="213.5">SuperCanardTest2</text><line style="stroke: #2F4F4F; stroke-width: 1.5;" x1="8" x2="253" y1="225.1992" y2="225.1992"/><text fill="#000000" font-family="sans-serif" font-size="11" lengthAdjust="spacingAndGlyphs" textLength="108" x="13" y="239.834">void setUpStreams()</text><text fill="#000000" font-family="sans-serif" font-size="11" lengthAdjust="spacingAndGlyphs" textLength="120" x="13" y="252.7891">void cleanUpStreams()</text><text fill="#000000" font-family="sans-serif" font-size="11" lengthAdjust="spacingAndGlyphs" textLength="174" x="13" y="265.7441">void testComportementColvert()</text><text fill="#000000" font-family="sans-serif" font-size="11" lengthAdjust="spacingAndGlyphs" textLength="235" x="13" y="278.6992">void testComportementCanardEnPlastique()</text><!--MD5=[edbc55225fd321a82d696a7e6acfa707]
class VolerAvecDesAiles--><rect codeLine="18" fill="#F0F8FF" filter="url(#fma7srtbmxbiz)" height="52.9551" id="VolerAvecDesAiles" rx="5" ry="5" style="stroke: #2F4F4F; stroke-width: 1.5;" width="132" x="890.5" y="345.1992"/><ellipse cx="905.5" cy="361.1992" fill="#ADD1B2" rx="11" ry="11" style="stroke: #2F4F4F; stroke-width: 1.0;"/><path d="M907.9731,367.3423 Q907.3921,367.6411 906.7529,367.7905 Q906.1138,367.9399 905.4082,367.9399 Q902.9014,367.9399 901.5815,366.2881 Q900.2617,364.6362 900.2617,361.5151 Q900.2617,358.3857 901.5815,356.7339 Q902.9014,355.082 905.4082,355.082 Q906.1138,355.082 906.7612,355.2314 Q907.4087,355.3809 907.9731,355.6797 L907.9731,358.4023 Q907.3423,357.8213 906.7488,357.5515 Q906.1553,357.2817 905.5244,357.2817 Q904.1797,357.2817 903.4949,358.3484 Q902.8101,359.415 902.8101,361.5151 Q902.8101,363.6069 903.4949,364.6736 Q904.1797,365.7402 905.5244,365.7402 Q906.1553,365.7402 906.7488,365.4705 Q907.3423,365.2007 907.9731,364.6196 Z "/><text fill="#000000" font-family="TrebuchetMS" font-size="12" lengthAdjust="spacingAndGlyphs" textLength="100" x="919.5" y="365.5">VolerAvecDesAiles</text><line style="stroke: #2F4F4F; stroke-width: 1.5;" x1="891.5" x2="1021.5" y1="377.1992" y2="377.1992"/><text fill="#000000" font-family="sans-serif" font-size="11" lengthAdjust="spacingAndGlyphs" textLength="61" x="896.5" y="391.834">void voler()</text><!--MD5=[c8d3b862c3f9e1194f86d1b4dddfe3f4]
link Canard to ComportementVol--><path codeLine="21" d="M646.7,123.4292 C690.55,150.6692 746.66,185.5092 785.49,209.6192 " fill="none" id="Canard-to-ComportementVol" style="stroke: #000000; stroke-width: 1.0;"/><polygon fill="#000000" points="790.13,212.5092,784.5934,204.3639,785.882,209.872,780.3739,211.1607,790.13,212.5092" style="stroke: #000000; stroke-width: 1.0;"/><text fill="#000000" font-family="sans-serif" font-size="13" lengthAdjust="spacingAndGlyphs" textLength="112" x="697.0523" y="201.7871">comportementVol</text><!--MD5=[9c3835228e25bd5b131766e0b615b467]
link Canard to ComportementCancan--><path codeLine="22" d="M601.77,126.9692 C614.54,152.9192 630.23,184.8092 641.53,207.7792 " fill="none" id="Canard-to-ComportementCancan" style="stroke: #000000; stroke-width: 1.0;"/><polygon fill="#000000" points="643.87,212.5392,643.4983,202.6974,641.6683,208.0501,636.3156,206.2201,643.87,212.5392" style="stroke: #000000; stroke-width: 1.0;"/><text fill="#000000" font-family="sans-serif" font-size="13" lengthAdjust="spacingAndGlyphs" textLength="138" x="523.5102" y="201.8244">comportementCancan</text><!--MD5=[bfd6c37e7992d2ecfcd701d9418aae25]
reverse link Canard to Colvert--><path codeLine="33" d="M548.38,144.9492 C536.74,168.6092 524.16,194.1692 515.13,212.5392 " fill="none" id="Canard-backto-Colvert" style="stroke: #000000; stroke-width: 1.0;"/><polygon fill="none" points="542.12,141.8192,557.23,126.9692,554.68,147.9992,542.12,141.8192" style="stroke: #000000; stroke-width: 1.0;"/><!--MD5=[b65f4168212d694b12b75cc4ef292165]
reverse link ComportementVol to NePasVoler--><path codeLine="55" d="M823.48,285.6992 C819.98,305.5492 816.01,328.0892 813.03,344.9692 " fill="none" id="ComportementVol-backto-NePasVoler" style="stroke: #000000; stroke-width: 1.0; stroke-dasharray: 7.0,7.0;"/><polygon fill="none" points="816.59,284.4592,826.96,265.9792,830.38,286.8892,816.59,284.4592" style="stroke: #000000; stroke-width: 1.0;"/><!--MD5=[e16669c69b47310314a81f43e06e62ba]
reverse link ComportementVol to VolerAvecDesAiles--><path codeLine="59" d="M870.32,280.7292 C890.4,301.6992 914.32,326.6592 931.86,344.9692 " fill="none" id="ComportementVol-backto-VolerAvecDesAiles" style="stroke: #000000; stroke-width: 1.0; stroke-dasharray: 7.0,7.0;"/><polygon fill="none" points="864.98,285.2692,856.2,265.9792,875.09,275.5792,864.98,285.2692" style="stroke: #000000; stroke-width: 1.0;"/><!--MD5=[8f8e5d158b3ba2896dd2c50d04f57ece]
reverse link ComportementCancan to Cancan--><path codeLine="66" d="M656.5,286.0192 C656.5,305.7892 656.5,328.1792 656.5,344.9692 " fill="none" id="ComportementCancan-backto-Cancan" style="stroke: #000000; stroke-width: 1.0; stroke-dasharray: 7.0,7.0;"/><polygon fill="none" points="649.5,285.9792,656.5,265.9792,663.5,285.9792,649.5,285.9792" style="stroke: #000000; stroke-width: 1.0;"/><!--MD5=[ad51a6d171e6672355113b44adc2b4d7]
reverse link Canard to CanardEnPlastique--><path codeLine="73" d="M498.81,138.3292 C473.09,156.3792 445.01,176.0792 420.63,193.1892 " fill="none" id="Canard-backto-CanardEnPlastique" style="stroke: #000000; stroke-width: 1.0;"/><polygon fill="none" points="494.91,132.5192,515.3,126.7592,502.95,143.9792,494.91,132.5192" style="stroke: #000000; stroke-width: 1.0;"/><!--MD5=[6704843c20973fda06bfcbece5d72848]
link SuperCanard to SuperCanardTest--><!--MD5=[c0ee7792ef358b03e9c2b0bd270de46b]
link SuperCanard to SuperCanardTest2--><rect fill="#DDDDDD" height="26.4883" rx="5" ry="5" style="stroke: #000000; stroke-width: 1.0;" width="630" x="384.5" y="419.1543"/><text fill="#000000" font-family="sans-serif" font-size="14" font-style="italic" lengthAdjust="spacingAndGlyphs" textLength="618" x="390.5" y="437.6895">This model has been generated by JMB using http://plantuml.sourceforge.net/doclet.html.</text><!--MD5=[711804c98d2268991fd8547e622f634e]
@startuml

' definitions
' - - - - - - - - - - -
!include config.cfg

' package ""
abstract Canard
class CanardEnPlastique
class CanardEnPlastique
class Cancan
class Colvert
interface ComportementCancan
interface ComportementVol
class NePasVoler
class SuperCanard
class SuperCanardTest
class SuperCanardTest2
class VolerAvecDesAiles
' end package

Canard  - -> "comportementVol" ComportementVol
Canard  - -> "comportementCancan" ComportementCancan
' content
' - - - - - - -

' Canard:
Canard : void effectuerCancan()
Canard : void nager()
Canard : void afficher()
Canard : void effectuerVol()

' Colvert:
Canard <|- - Colvert
Colvert : void afficher()

' CanardEnPlastique:

' SuperCanardTest:
SuperCanardTest : void main(String)
SuperCanardTest : void test_ligne1()
SuperCanardTest : void test_ligne2()
SuperCanardTest : void test_ligne3()
SuperCanardTest : void test_ligne4()

' SuperCanardTest2:
SuperCanardTest2 : void setUpStreams()
SuperCanardTest2 : void cleanUpStreams()
SuperCanardTest2 : void testComportementColvert()
SuperCanardTest2 : void testComportementCanardEnPlastique()

' ComportementCancan:
ComportementCancan : void cancaner()

' NePasVoler:
ComportementVol <|.. NePasVoler
NePasVoler : void voler()

' VolerAvecDesAiles:
ComportementVol <|.. VolerAvecDesAiles
VolerAvecDesAiles : void voler()

' ComportementVol:
ComportementVol : void voler()

' Cancan:
ComportementCancan <|.. Cancan
Cancan : void cancaner()

' SuperCanard:
SuperCanard : void main(String)

' CanardEnPlastique:
Canard <|- - CanardEnPlastique
CanardEnPlastique : void cancaner()
CanardEnPlastique : void nager()
CanardEnPlastique : void voler()
CanardEnPlastique : void afficher()

@enduml

@startuml


hide empty members
hide empty methods

title Generated UML Class Diagram
legend right
  <i>This model has been generated by JMB using http://plantuml.sourceforge.net/doclet.html.</i>
endlegend

skinparam package {
	BackgroundColor empty
	BorderColor DarkSlateGray
	ArrowColor Black
	FontColor Black
	FontSize 12
	FontName TrebuchetMS
}
skinparam roundcorner 10

skinparam class {
	BackgroundColor AliceBlue
	BorderColor DarkSlateGray
	ArrowColor Black
	FontColor Black
	FontSize 12
	FontName TrebuchetMS
}
skinparam arrow {
    MessageAlign center
}

abstract Canard
class CanardEnPlastique
class CanardEnPlastique
class Cancan
class Colvert
interface ComportementCancan
interface ComportementVol
class NePasVoler
class SuperCanard
class SuperCanardTest
class SuperCanardTest2
class VolerAvecDesAiles

Canard  - -> "comportementVol" ComportementVol
Canard  - -> "comportementCancan" ComportementCancan

Canard : void effectuerCancan()
Canard : void nager()
Canard : void afficher()
Canard : void effectuerVol()

Canard <|- - Colvert
Colvert : void afficher()


SuperCanardTest : void main(String)
SuperCanardTest : void test_ligne1()
SuperCanardTest : void test_ligne2()
SuperCanardTest : void test_ligne3()
SuperCanardTest : void test_ligne4()

SuperCanardTest2 : void setUpStreams()
SuperCanardTest2 : void cleanUpStreams()
SuperCanardTest2 : void testComportementColvert()
SuperCanardTest2 : void testComportementCanardEnPlastique()

ComportementCancan : void cancaner()

ComportementVol <|.. NePasVoler
NePasVoler : void voler()

ComportementVol <|.. VolerAvecDesAiles
VolerAvecDesAiles : void voler()

ComportementVol : void voler()

ComportementCancan <|.. Cancan
Cancan : void cancaner()

SuperCanard : void main(String)

Canard <|- - CanardEnPlastique
CanardEnPlastique : void cancaner()
CanardEnPlastique : void nager()
CanardEnPlastique : void voler()
CanardEnPlastique : void afficher()

@enduml

PlantUML version 1.2020.18(Wed Sep 30 21:40:44 CEST 2020)
(GPL source distribution)
Java Runtime: OpenJDK Runtime Environment
JVM: OpenJDK 64-Bit Server VM
Default Encoding: UTF-8
Language: fr
Country: FR
--></g></svg>